<svg xmlns="http://www.w3.org/2000/svg" width="444" height="123" viewBox="0 0 444 123">
	<path fill="#1a1918" fill-rule="evenodd" d="M323.92 86.8c-59.5-1.83-151.15 3.13-247.4 23.9-14.74 3.2-18.45 13-12.16 11.68 73.64-15.5 177.52-24.9 259.7-22.4 61.9 1.9 84.07 14.65 86.85 15.9 2.8 1.26 8.2-3.03 8.4-9.86.4-11.66-40-17.53-95.3-19.23m116.8-13c-.3.2-1.4.9-3.6.9-10.3 0-5.9-18.6-5.9-18.6s9.8-4.6 10.6-17.7c.4-6.7-2.7-12.1-9-12.5-6.3-.4-11.9 4.2-14.1 6.4 3.6-7.8 7.7-14.9 10-19 3-5.5-6.7-13.5-9.3-11.5-4.7 3.6-12.7 21.2-17.9 40C396.5 49 388 58 377.5 57.3c-13.3-.8-3.8-24.8 3.7-24.3 2.4.1 1.17 4.2-.8 7.7-1.7 3.12 11.78 6.8 15.2-6.3 2.2-7.4-6.2-12.1-11.7-12.4-13.8-.9-26.37 12.7-27.67 26.6-.14 1.53-.2 2.95-.2 4.3-2.6 2.1-5.4 3.36-8.1 3.2-2.32-.14-4.6-2.45-4.4-5.93.4-7 2.67-12.8 6.97-19.23 3.94-5.9-9.46-17.7-13.3-7.47l-.15.4c-1.5-2.42-4.8-5.6-11.3-5.1-8.5.63-18.25 12.2-20.96 24.7-4.1 6.3-9.5 11.7-14.9 11.54-2.3 0-4.6-2.3-4.5-5.8.2-6.3 2.2-12.8 4.8-18.7 3.4.3 6.5 1 9 2.3 7.2 3.9 5.4-10.3 2.5-11.4-2.1-.8-4.2-1.3-6.3-1.7 1.5-2.8 2.9-5.3 4-7.4 2.8-5.5-7.1-13.3-9.7-11.2-3.2 2.5-7 9.7-10.4 18.7-6.9 1.1-11.6 3.1-11.6 3.1-4-.1-5.9 8.6-1.6 8.8 1.8.1 5.4-.4 9.5-.8-2.3 8.2-3.9 16.9-4.2 24.4-.3 8.2 4.6 13.8 11.1 14 9.2.3 16.8-4.4 22.6-10.6 2.6 9.3 8.9 10.4 13.2 10.1 5.1-.4 9.3-3.5 12.3-6.8 2.3 5 7.6 8.3 11 8.5 6.6.4 12.3-1.9 17.2-5.4 3 4.6 8.2 6.9 15.4 7.4 9.1.5 16.8-4.1 22.8-10.2-.3 2.38-.6 4.67-.7 6.87-.08.3-.08.6-.07.8 0 2.1.44 3.1 1.25 3.5 3.4 4.1 12.4 3.4 12.8-.4.34-3.6 1.1-8.54 2.1-13.33l5.5-.85c-1.1 7.1.3 28.9 14.8 28.9 13.33 0 10.7-15.54 7.84-13.86zM321 51.8c-1.94-.15-2.9-1.48-2.47-4.7 1.04-7.77 6.58-15.37 14.1-14.36 0 0-1.43 5.96-2.35 8.4-1.36 3.63-4.86 10.9-9.3 10.63zm94.62-3.65l.1-.32c1.8-4.87 6.2-8.08 9.94-7.86 1.14.06 1.73.85 1.7 1.62-.3 5-6.7 5.9-11.76 6.5zM77.1 94.1c8.06-.8 15.26-14 19.2-26.94 1.83.95 3.97 1.74 6.45 2.23 1.75 11.5 8.7 16.4 20.3 15.8 9.88-.5 17.87-9.1 23.57-18v.4c-.02 15.3 11.65 16 13.4 10.7 2.27-6.8 9.07-20.9 14.4-27.8-.2 2.6-.32 5.3-.32 8.2 0 11 7.44 17.4 13.24 17.4 7.35 0 13.34-3.3 18.16-7.9 2.22 3.6 5.85 5.6 9.97 5.4 8.7-.5 16.04-5.2 21.93-11.3 2.9 3.8 7.9 8.2 15.33 7.8 9.1-.5 15.5-6.9 15.04-15.4C267.23 45 256 32.6 256 32.6s2.65-5.6 2.4-10.1c-.4-7.74-15.8-5.9-14.83-3.05.9 2.7 1.12 5.9 1.1 8.7-.07.2-.1.47-.1.78.15 5.97-11.78 29.58-23.1 30.2-2.3.1-4.8-1.93-4.98-5.4-.4-6.07 1.1-12.4 3.2-18.32 3.7.1 7.2.2 9.7.4 8.2.6 3.1-11.1 0-11.6-1.4-.2-3.2-.3-5-.2 1.4-3.1 2.7-5.9 3.7-8.2 2.3-5.7-8.2-12.6-10.6-10.3-3 2.9-6.6 10.8-9.4 20.5-4 .7-6.9 1.4-6.9 1.4-3.9.7-4 9.7.2 8.9 1-.2 2.4-.3 4.1-.4-1.4 6.4-2.4 13.1-2.6 19.3-3.2 4-7 6.8-10.8 6.8-3.3 0-4.7-3.6-4.8-7.1-.1-7 .8-11.5 4.6-18.2 2.4-4.2-3.3-10.5-8.3-10.9-.2-.1-.4-.2-.6-.2-6.6 0-18.7 19.3-23.1 29.2.2-2.2-.2-2.6.3-5 0 0 1.8-4.6 3.1-9.2 1.8-6.8-9.2-16.2-12.3-5.7-.9 3-1.7 6.2-2.4 9.5-2.4 6.5-10.5 25.2-24.7 25.9-3.5.2-5.6-1.4-6.7-3.9 7.12-2 22.8-8 22.12-20.8-.3-7.4-7.5-12.13-13-11.9-12.2.6-22.2 12.8-24.2 25.3-1.34-.42-2.7-1.03-3.94-1.9.8-4.8 1-9.02.3-11.8-1.4-6.2-5.2-7.64-9.2-7.64-5.1 0-7 6-6.8 11.6.5 10.3 5.9 14.4 5.9 14.4s-4.6 14.2-10.2 15c-7.7 1.05-4.03-22.6-3.3-25.65.9-3.7-5.64-9-10.3-8.4-6.1.8-6.06 15.18-5.44 24.03-3.4 7.5-9.55 17.3-18.54 18.6-6.7.96-9.6-3.2-9.8-11.95-.1-3 .1-5.94.5-8.9 5.1-1.1 10.1-1.9 14.3-2 4.1-.1 6.5-4 5.3-9.22-1-4.6-2.4-5.8-6.9-4.93-1.9.3-5.4.8-9.5 1.6 2.1-6.8 4.7-12.5 6.5-16.2 7.3-1.6 14.3-2.3 19-1.1 2.9.8 5.8-2.2 5.8-8.1 0-6.3-5.1-8-8.1-7.6-7.1 1.1-40.3 6.8-49.6 15.27-4.6 4.22-3 13.6 1.14 11.6 1.45-.7 6.5-2.7 13.03-4.9-.94 2.9-2.6 8.3-4.05 14.6-7 2.1-13.5 5.03-16.7 9.1-3.8 4.9-.4 13.23 2.33 11.1 1.1-.9 5.75-2.9 11.9-4.9-.2 2.8-.3 5.7-.1 8.3 1.13 20 14.9 25.7 22.42 25.6 11.3-.1 19.1-10.9 23.9-21 2.6 5.2 7 11.3 15 10.5zm171.67-37.24c-2.24.12-3.72-.97-4.7-2.32 2.46-3.5 4.5-7.03 6.12-10.14 1.3 2.33 2.6 5.1 2.8 7.45.2 2.34-1.2 4.85-4.3 5zM125.47 45.6c2.4-.12 1.14 4.5-.96 7.08-1.5 1.9-2.7 3.05-7 4 1.3-5.63 4.6-10.93 8-11.1z"/>
</svg>
