<?xml version="1.0" encoding="UTF-8"?>
<svg width="750px" height="300px" viewBox="0 0 750 300" version="1.1" xmlns="http://www.w3.org/2000/svg" xmlns:xlink="http://www.w3.org/1999/xlink">
    <!-- Generator: Sketch 40.3 (33839) - http://www.bohemiancoding.com/sketch -->
    <title>git-to-great</title>
    <desc>Created with Sketch.</desc>
    <defs></defs>
    <g id="Page-1" stroke="none" stroke-width="1" fill="none" fill-rule="evenodd">
        <path d="M423,186 L423,172 L390,172 C385.710526,170.686016 381.263158,170 374,170 C347.736842,170 334.736842,183.548813 335,203 C334.736842,215.963061 341.065789,224.881266 349,229 C345.342105,232.770449 341.921053,236.029024 339,239 C335.763158,242.546174 333.881579,245.976253 334,250 C333.881579,254.379947 335.763158,258.667546 341,261 C335.421053,266.728232 332,270.844327 332,279 C332,292.110818 343.802632,300 375,300 C404.526316,300 421.802632,288.852243 422,269 C421.802632,246.319261 404.355263,245.461741 375,244 L358,243 L364,233 C366.723684,234.313984 371.684211,235 377,235 C398.710526,235 413.592105,223.852243 414,205 C413.592105,196.926121 410.342105,191.437995 407,187 L423,186 Z M391,202 C391,211.342857 384.497326,217 375,217 C363.620321,217 359,211.171429 359,203 C359,191.628571 366.016043,187 375,187 C385.181818,187 391,192.314286 391,202 L391,202 Z M381,268 C389.51938,268.228571 396,268.571429 396,274 C396,283.314286 382.527132,284 373,284 C360.697674,284 352,281.942857 352,275 C352,271.657143 354.217054,268.742857 356,266 L381,268 Z M485,261 L485,247 L468,246 C465.427252,245.747646 465.256351,245.233522 465,242 L465,197 C467.819861,194.849341 473.117783,191.079096 478,191 C478.928406,191.079096 479.441109,191.421846 480,193 L481,202 L502,203 L502,172 C498.923788,170.685499 491.062356,170 487,170 C476.193995,170 468.674365,176.683616 463,185 L462,185 L460,172 L430,172 L428,186 L437,189 C438.937644,189.365348 439.450346,190.564972 439,192 L439,243 C439.450346,245.233522 439.108545,245.747646 437,246 L429,247 L429,261 L485,261 Z M581,237 C569.367521,241.59116 562.188034,243.132597 556,243 C541.504274,243.132597 536.205128,235.082873 535,223 L588,223 C587.82906,219.497238 588,213.502762 588,211 C588,181.81768 572.957265,170 550,170 C526.974359,170 508,184.729282 508,216 C508,242.447514 519.282051,263 552,263 C565.094017,263 576.717949,259.403315 587,254 L581,237 Z M536,207 C537.018868,193.075472 542.962264,189 550,189 C557.226415,189 562.830189,192.735849 563,207 L536,207 Z M684,261 L684,247 L676,246 C673.192982,245.701657 673.021442,245.359116 673,243 L673,201 C673.021442,177.022099 662.557505,170 636,170 C620.701754,170 599.602339,173.254144 600,196 L624,198 C623.789474,188.154696 628.077973,186.955801 636,187 C646.947368,186.955801 647.805068,192.436464 648,200 L648,210 L628,211 C606.635478,212.646409 596,220.524862 596,238 C596,248.270718 599.430799,263 621,263 C634.768031,263 643.345029,257.861878 650,252 L651,252 L652,261 L684,261 Z M647,238 C643.114865,240.806723 637.371622,244 632,244 C626.054054,244 622,241.478992 622,235 C622,228.033613 625.547297,225.512605 636,225 L647,224 L647,238 Z M747,241 C743.311111,242.674453 738.37037,243.870073 734,244 C724.4,243.870073 722.014815,239.941606 722,230 L722,189 L747,189 L747,172 L723,172 C722.014815,171.962044 722.014815,171.449635 722,170 L722,146 L706,146 C703.955556,164.617518 697.992593,172.132847 683,174 L683,189 L695,189 C696.288889,189.042336 696.288889,189.725547 696,191 L696,236 C696.288889,254.80146 703.955556,263 724,263 C733.940741,263 744.674074,259.754745 752,256 L747,241 Z" id="great" fill="#0b0b07"></path>
        <path d="M253,250 C251.214815,250.881752 248.493827,251.535766 246,252 C240.8,251.535766 239.48642,249.386861 239,244 L239,222 L253,222 L253,212 L240,212 C239.48642,212.20146 239.48642,211.921168 239,211 L239,198 L231,198 C229.540741,208.183942 226.25679,212.294891 218,213 L218,222 L225,222 C225.318519,221.544526 225.318519,221.918248 225,222 L225,247 C225.318519,257.515328 229.540741,262 241,262 C246.054321,262 251.965432,260.224818 256,258 L253,250 Z M282,262 C299.840607,262 308,251.668508 308,236 C308,221.331492 301.16888,211 284,211 C266.254269,211 258,221.143646 258,237 C258,251.480663 265.020873,262 282,262 L282,262 Z M283,252 C276.696682,252 273,247.490909 273,236 C273,224.851515 277.170616,221 283,221 C289.587678,221 293,224.945455 293,236 C293,247.772727 289.208531,252 283,252 L283,252 Z" id="to" fill="#0b0b07"></path>
        <path d="M307,58 L307,44 L274,44 C269.710526,42.6860158 265.263158,42 258,42 C231.736842,42 218.736842,55.5488127 219,75 C218.736842,87.9630607 225.065789,96.8812665 233,101 C229.342105,104.770449 225.921053,108.029024 223,111 C219.763158,114.546174 217.881579,117.976253 218,122 C217.881579,126.379947 219.763158,130.667546 225,133 C219.421053,138.728232 216,142.844327 216,151 C216,164.110818 227.802632,172 259,172 C288.526316,172 305.802632,160.852243 306,141 C305.802632,118.319261 288.355263,117.461741 259,116 L242,115 L248,105 C250.723684,106.313984 255.684211,107 261,107 C282.710526,107 297.592105,95.8522427 298,77 C297.592105,68.9261214 294.342105,63.4379947 291,59 L307,58 Z M275,74 C275,83.3428571 268.497326,89 259,89 C247.620321,89 243,83.1714286 243,75 C243,63.6285714 250.016043,59 259,59 C269.181818,59 275,64.3142857 275,74 L275,74 Z M265,140 C273.51938,140.228571 280,140.571429 280,146 C280,155.314286 266.527132,156 257,156 C244.697674,156 236,153.942857 236,147 C236,143.657143 238.217054,140.742857 240,138 L265,140 Z M336,0 C326.651934,0 321,5.2247191 321,15 C321,24.4382022 326.651934,30 336,30 C346.348066,30 352,24.4382022 352,15 C352,5.2247191 346.348066,0 336,0 Z M363,133 L363,120 L354,118 C351.652632,117.96737 351.480702,117.62572 351,115 L351,44 L316,44 L314,58 L323,61 C325.003509,61.5950096 325.519298,62.7907869 326,65 L326,115 C325.519298,117.454894 325.175439,117.96737 323,118 L314,120 L314,133 L363,133 Z M426,113 C422.311111,114.674453 417.37037,115.870073 413,116 C403.4,115.870073 401.014815,111.941606 401,102 L401,61 L426,61 L426,44 L402,44 C401.014815,43.9620438 401.014815,43.449635 401,42 L401,18 L385,18 C382.955556,36.6175182 376.992593,44.1328467 362,46 L362,61 L374,61 C375.288889,61.0423358 375.288889,61.7255474 375,63 L375,108 C375.288889,126.80146 382.955556,135 403,135 C412.940741,135 423.674074,131.754745 431,128 L426,113 Z" id="git" fill="#0b0b07"></path>
        <path d="M5.49202239,82.2602863 C0.802264265,86.9500444 0.802007927,94.5543166 5.49202239,99.2443311 L83.2602863,177.012595 C87.9500444,181.702353 95.5543166,181.702609 100.244331,177.012595 L178.012595,99.2443311 C182.702353,94.5545729 182.702609,86.9503008 178.012595,82.2602863 L100.244331,4.49202239 C95.5545729,-0.197735735 87.9503008,-0.197992073 83.2602863,4.49202239 L67.5666092,20.1856994 L87.2651328,39.8209321 C88.7439983,39.2895427 90.338186,39 92,39 C99.7319865,39 106,45.2680135 106,53 C106,54.6459308 105.715966,56.2255218 105.194238,57.6924317 L124.353041,76.7896777 C125.807103,76.2781994 127.371063,76 129,76 C136.731986,76 143,82.2680135 143,90 C143,97.7319865 136.731986,104 129,104 C121.268014,104 115,97.7319865 115,90 C115,88.3292517 115.292664,86.7268588 115.829524,85.2412906 L97,66.4722656 L97,114.919258 C102.26274,116.932102 106,122.029609 106,128 C106,135.731986 99.7319865,142 92,142 C84.2680135,142 78,135.731986 78,128 C78,122.029609 81.7372596,116.932102 87,114.919258 L87,66.0807424 C81.7372596,64.0678978 78,58.9703908 78,53 C78,51.3620562 78.2812845,49.7898099 78.7981834,48.3289311 L59.0791021,28.6732066 L5.49202239,82.2602863 Z" id="emblem" fill="#0CBF31"></path>
    </g>
</svg>
